# AST/ASF file generated using VICON BodyLanguage
# -----------------------------------------------
:version 1.10
:name VICON
:units
  mass 1.0
  length 0.45
  angle deg
:documentation
   .ast/.asf automatically generated from VICON data using
   VICON BodyBuilder and BodyLanguage model FoxedUp or BRILLIANT.MOD
:root
   order TX TY TZ RX RY RZ
   axis XYZ
   position 0 0 0  
   orientation 0 0 0 
:bonedata
  begin
     id 1 
     name lhipjoint
     direction 0.62366 -0.717238 0.310833 
     length 2.53602 
     axis 0 0 0  XYZ
  end
  begin
     id 2 
     name lfemur
     direction 0.34202 -0.939693 0  
     length 7.40817  
     axis 0 0 20  XYZ
    dof rx ry rz
    limits (-160.0 20.0)
           (-70.0 70.0)
           (-60.0 70.0)
  end
  begin
     id 3 
     name ltibia
     direction 0.34202 -0.939693 0   
     length 7.7045   
     axis 0 0 20   XYZ
    dof rx
    limits (-10.0 170.0)
  end
  begin
     id 4 
     name lfoot
     direction 0.0673888 -0.185149 0.980397   
     length 2.09456   
     axis -90 7.62852e-016 20   XYZ
    dof rx rz
    limits (-45.0 90.0)
           (-70.0 20.0)
  end
  begin
     id 5 
     name ltoes
     direction 1.53575e-011 -4.21994e-011 1   
     length 1.05543   
     axis -90 7.62852e-016 20   XYZ
    dof rx
    limits (-90.0 20.0)
  end
  begin
     id 6 
     name rhipjoint
     direction -0.489018 -0.800347 0.346851   
     length 2.27268  
     axis 0 0 0  XYZ 
  end
  begin
     id 7 
     name rfemur
     direction -0.34202 -0.939693 0   
     length 7.55487   
     axis 0 0 -20   XYZ
    dof rx ry rz
    limits (-160.0 20.0)
           (-70.0 70.0)
           (-70.0 60.0)
  end
  begin
     id 8 
     name rtibia
     direction -0.34202 -0.939693 0   
     length 7.78969   
     axis 0 0 -20   XYZ
    dof rx
    limits (-10.0 170.0)
 end
 begin
     id 9 
     name rfoot
     direction -0.0859318 -0.236096 0.967923   
     length 2.19143  
     axis -90 -7.62852e-016 -20   XYZ
    dof rx rz
    limits (-45.0 90.0)
           (-20.0 70.0)
  end
  begin
     id 10 
     name rtoes
     direction -1.53538e-011 -4.21989e-011 1   
     length 1.09845   
     axis -90 -7.62852e-016 -20   XYZ
    dof rx
    limits (-90.0 20.0)
  end
  begin
     id 11 
     name lowerback
     direction -0.00762546 0.998978 -0.0445553   
     length 1.98161   
     axis 0 0 0   XYZ
    dof rx ry rz
    limits (-20.0 45.0)
           (-30.0 30.0)
           (-30.0 30.0)
  end
  begin
     id 12 
     name upperback
     direction 0.0422361 0.998867 -0.0219156   
     length 1.97558   
     axis 0 0 0   XYZ
    dof rx ry rz
    limits (-20.0 45.0)
           (-30.0 30.0)
           (-30.0 30.0)
  end
  begin
     id 13 
     name thorax
     direction 0.0442465 0.999021 7.47603e-005   
     length 1.97799   
     axis 0 0 0   XYZ
    dof rx ry rz
    limits (-20.0 45.0)
           (-30.0 30.0)
           (-30.0 30.0)
  end
  begin
     id 14 
     name lowerneck
     direction 0.00312169 0.984641 0.174564   
     length 1.78995   
     axis 0 0 0   XYZ
    dof rx ry rz
    limits (-20.0 45.0)
           (-30.0 30.0)
           (-30.0 30.0)
  end
  begin
     id 15 
     name upperneck
     direction -0.0383028 0.985255 -0.166749   
     length 1.83053   
     axis 0 0 0   XYZ
    dof rx ry rz
    limits (-20.0 45.0)
           (-30.0 30.0)
           (-30.0 30.0)
  end
  begin
     id 16
     name head
     direction -0.0129546 0.997059 -0.0755386  
     length 1.84088  
     axis 0 0 0   XYZ
    dof rx ry rz
    limits (-20.0 45.0)
           (-30.0 30.0)
           (-30.0 30.0)
  end
  begin
     id 17 
     name lclavicle
     direction 0.912857 0.370519 -0.171488  
     length 3.51279  
     axis 0 0 0   XYZ
    dof ry rz
    limits (-20.0 10.0)
           (0.0 20.0)
  end
  begin
     id 18 
     name lhumerus
     direction 1 -4.48962e-011 3.64361e-027   
     length 4.95663   
     axis 180 -30 -90   XYZ
    dof rx ry rz
    limits (-60.0 90.0)
           (-90.0 90.0)
           (-90.0 90.0)
  end
  begin
     id 19
     name lradius
     direction 1 -4.48974e-011 5.97202e-027   
     length 3.38177   
     axis 180 -30 -90   XYZ
    dof rx
    limits (-10.0 170.0)
  end
  begin
     id 20
     name lwrist
     direction 1 -4.4896e-011 9.83288e-027   
     length 1.69088   
     axis -9.31221e-015 90 90   XYZ
    dof ry
    limits (-180.0 0.0)
 end
  begin
     id 21 
     name lhand
     direction 1 -4.4902e-011 1.96551e-026   
     length 0.662909   
     axis -1.25475e-014 90 90   XYZ
    dof rx rz
    limits (-90.0 90.0)
           (-45.0 45.0)
  end
  begin
     id 22 
     name lfingers
     direction 1 -4.48971e-011 3.93277e-026   
     length 0.534454   
     axis -2.50945e-014 90 90   XYZ
    dof rx
    limits (0.0 90.0)
  end
  begin
     id 23
     name lthumb
     direction 0.707107 -6.34933e-011 0.707107   
     length 0.767373   
     axis -90 45 -4.80359e-014   XYZ
    dof rx rz
    limits (-45.0 45.0)
           (-45.0 45.0)
  end
  begin
     id 24 
     name rclavicle
     direction -0.900919 0.395364 -0.178976   
     length 3.40627  
     axis 0 0 0   XYZ 
    dof ry rz
    limits (-10.0 20.0)
           (-20.0 0.0)
  end
  begin
     id 25 
     name rhumerus
     direction -1 -4.48969e-011 1.03875e-027  
     length 5.08365   
     axis 180 30 90   XYZ
    dof rx ry rz
    limits (-90.0 60.0)
           (-90.0 90.0)
           (-90.0 90.0)
  end
  begin
     id 26 
     name rradius
     direction -1 -4.48951e-011 5.02733e-027   
     length 3.35984   
     axis 180 30 90   XYZ
    dof rx
    limits (-10.0 170.0)
  end
  begin
     id 27 
     name rwrist
     direction -1 -4.49011e-011 9.82828e-027   
     length 1.67992   
     axis -9.31221e-015 -90 -90   XYZ
    dof ry
    limits (-180.0 0.0)
  end
  begin
     id 28
     name rhand
     direction -1 -4.48894e-011 1.96774e-026   
     length 0.820764   
     axis -1.25475e-014 -90 -90   XYZ
    dof rx rz
    limits (-90.0 90.0)
           (-45.0 45.0)
  end
  begin
     id 29
     name rfingers
     direction -1 -4.49095e-011 3.92833e-026   
     length 0.661721   
     axis -2.50945e-014 -90 -90   XYZ
    dof rx
    limits (0.0 90.0)
  end
  begin
     id 30
     name rthumb
     direction -0.707107 -6.34881e-011 0.707107   
     length 0.950103   
     axis -90 -45 4.80359e-014   XYZ
    dof rx rz
    limits (-45.0 45.0)
           (-45.0 45.0)
  end
:hierarchy
  begin
    root lhipjoint rhipjoint lowerback
    lhipjoint lfemur
    lfemur ltibia
    ltibia lfoot
    lfoot ltoes
    rhipjoint rfemur
    rfemur rtibia
    rtibia rfoot
    rfoot rtoes
    lowerback upperback
    upperback thorax
    thorax lowerneck lclavicle rclavicle
    lowerneck upperneck
    upperneck head
    lclavicle lhumerus
    lhumerus lradius
    lradius lwrist
    lwrist lhand lthumb
    lhand lfingers
    rclavicle rhumerus
    rhumerus rradius
    rradius rwrist
    rwrist rhand rthumb
    rhand rfingers
  end

#!OML:ASF I:\golf\golf\golf 2\Subject 1\2002-09-07\Subject1.ASF
:FULLY-SPECIFIED
:DEGREES
19
root 0.522882 18.1228 -2.89204 9.38333 -2.84593 -0.2597
lowerback -7.23986 -0.774823 -7.5373
upperback -0.969397 -0.568591 3.79482
thorax 3.1701 -0.398102 8.22305
lowerneck -21.2273 0.133407 -0.865579
upperneck 19.6511 1.41999 -3.94992
head 9.7726 0.114245 -1.03872
rclavicle 2.88238e-015 -1.74931e-014
rhumerus -29.0757 -1.78095 -80.4347
rradius 26.2099
rwrist -10.5513
rhand -21.1763 13.0011
rfingers 7.12502
rthumb 5.20413 -16.915
lclavicle 2.88238e-015 -1.74931e-014
lhumerus -28.8131 25.7368 80.3116
lradius 21.0967
lwrist -1.17736
lhand -8.90892 34.7324
lfingers 7.12502
lthumb 17.0341 64.0055
rfemur -14.9957 -0.75017 21.2507
rtibia 27.0381
rfoot -14.6091 -13.174
rtoes 2.78795
lfemur -13.0203 2.01118 -21.023
ltibia 21.3663
lfoot -13.2443 -1.37091
ltoes -5.76321
20
root 0.519785 18.1219 -2.89188 9.40095 -2.79176 -0.247777
lowerback -7.27756 -0.768059 -7.54348
upperback -0.960397 -0.556135 3.78676
thorax 3.19822 -0.393522 8.21942
lowerneck -20.9891 0.140872 -0.770151
upperneck 19.5001 1.41639 -4.06888
head 9.6777 0.111046 -1.09451
rclavicle -3.67752e-015 -3.97569e-015
rhumerus -29.1215 -1.91947 -80.3888
rradius 26.167
rwrist -10.4683
rhand -21.1699 12.9758
rfingers 7.12502
rthumb 5.21027 -16.9401
lclavicle -3.67752e-015 -3.97569e-015
lhumerus -28.7598 25.4804 80.4162
lradius 21.077
lwrist -1.16208
lhand -8.80785 35.1404
lfingers 7.12502
lthumb 17.1314 64.4051
rfemur -15.0102 -0.76247 21.25
rtibia 27.0308
rfoot -14.6424 -13.217
rtoes 2.57755
lfemur -13.0354 2.02298 -21.0208
ltibia 21.3445
lfoot -13.2267 -1.4341
ltoes -5.51806
21
root 0.516756 18.1239 -2.89258 9.3802 -2.73257 -0.358361
lowerback -7.20751 -0.750794 -7.42779
upperback -0.973773 -0.547957 3.81629
thorax 3.14249 -0.385074 8.18424
lowerneck -20.7349 0.139295 -0.703871
upperneck 19.3364 1.4022 -4.16038
head 9.57498 0.104481 -1.13702
rclavicle -2.38542e-015 -5.88403e-014
rhumerus -29.2508 -1.96926 -80.3502
rradius 26.1976
rwrist -10.4265
rhand -21.0339 12.9099
rfingers 7.12502
rthumb 5.34158 -17.0028
lclavicle -2.38542e-015 -5.88403e-014
lhumerus -28.7968 25.1815 80.512
lradius 21.1026
lwrist -1.0915
lhand -8.78922 35.1003
lfingers 7.12502
lthumb 17.1493 64.3635
rfemur -14.9624 -0.751719 21.3866
rtibia 26.9954
rfoot -14.6606 -13.2217
rtoes 2.64061
lfemur -13.0002 2.00355 -20.869
ltibia 21.3538
lfoot -13.2098 -1.52748
ltoes -4.93598
22
root 0.512292 18.1257 -2.89219 9.3356 -2.70356 -0.483056
lowerback -7.14289 -0.731437 -7.30677
upperback -0.957707 -0.536351 3.83974
thorax 3.12002 -0.377484 8.13989
lowerneck -20.7176 0.126298 -0.769514
upperneck 19.4112 1.38098 -4.04806
head 9.59622 0.101839 -1.09056
rclavicle 3.97569e-016 1.19271e-014
rhumerus -29.3552 -1.8718 -80.3923
rradius 26.2889
rwrist -10.5555
rhand -20.9491 12.7923
rfingers 7.12502
rthumb 5.42346 -17.1183
lclavicle 3.97569e-016 1.19271e-014
lhumerus -28.817 24.9666 80.5763
lradius 21.1687
lwrist -1.08885
lhand -8.7874 35.0919
lfingers 7.12502
lthumb 17.1511 64.3549
rfemur -14.8835 -0.727134 21.5461
rtibia 26.9641
rfoot -14.6873 -13.2156
rtoes 3.25882
lfemur -12.953 2.05646 -20.7094
ltibia 21.374
lfoot -13.2142 -1.57784
ltoes -5.40297
23
root 0.506524 18.124 -2.89245 9.31309 -2.69856 -0.43873
lowerback -7.11476 -0.725414 -7.35476
upperback -0.925551 -0.52492 3.80734
thorax 3.13592 -0.374033 8.13396
lowerneck -20.7624 0.127438 -0.785587
upperneck 19.5445 1.3776 -3.97841
head 9.65037 0.104502 -1.06536
rclavicle -5.86415e-015 -2.8625e-014
rhumerus -29.393 -1.84924 -80.4484
rradius 26.3495
rwrist -10.6164
rhand -20.973 12.7835
rfingers 7.12502
rthumb 5.40042 -17.1277
lclavicle -5.86415e-015 -2.8625e-014
lhumerus -28.7873 24.8864 80.591
lradius 21.2257
lwrist -1.15624
lhand -8.43546 35.1216
lfingers 7.12502
lthumb 17.4898 64.3549
rfemur -14.8515 -0.7195 21.5183
rtibia 26.9466
rfoot -14.7009 -13.2076
rtoes 3.71115
lfemur -12.9623 2.16824 -20.747
ltibia 21.3974
lfoot -13.2262 -1.63025
ltoes -6.0812
24
root 0.501993 18.1227 -2.89417 9.32712 -2.69324 -0.333573
lowerback -7.06224 -0.723556 -7.4321
upperback -0.933274 -0.518125 3.75583
thorax 3.09715 -0.369129 8.1236
lowerneck -20.6957 0.151671 -0.662862
upperneck 19.5744 1.4034 -4.10906
head 9.65133 0.110592 -1.12769
rclavicle -1.98785e-015 -2.22639e-014
rhumerus -29.4351 -1.88493 -80.4787
rradius 26.3313
rwrist -10.599
rhand -20.9767 12.8677
rfingers 7.12502
rthumb 5.39689 -17.0436
lclavicle -1.98785e-015 -2.22639e-014
lhumerus -28.7682 24.7493 80.6137
lradius 21.2239
lwrist -1.17296
lhand -8.1463 35.1849
lfingers 7.12502
lthumb 17.7681 64.3931
rfemur -14.8874 -0.763072 21.4174
rtibia 26.9575
rfoot -14.6905 -13.1793
rtoes 3.63206
lfemur -13.0041 2.23487 -20.8558
ltibia 21.4026
lfoot -13.2603 -1.68596
ltoes -6.14203
25
root 0.499725 18.1245 -2.89553 9.33179 -2.70114 -0.325726
lowerback -7.0002 -0.720476 -7.41166
upperback -0.925956 -0.519563 3.75599
thorax 3.07015 -0.368627 8.11142
lowerneck -20.6769 0.19864 -0.56962
upperneck 19.6185 1.47161 -4.23849
head 9.66689 0.133442 -1.17905
rclavicle 1.78906e-015 3.33958e-014
rhumerus -29.4238 -1.7987 -80.5063
rradius 26.2839
rwrist -10.6246
rhand -20.9461 12.9547
rfingers 7.12502
rthumb 5.42636 -16.9558
lclavicle 1.78906e-015 3.33958e-014
lhumerus -28.7107 24.6096 80.6944
lradius 21.22
lwrist -1.09918
lhand -8.07983 35.0187
lfingers 7.12502
lthumb 17.832 64.2212
rfemur -14.923 -0.871924 21.4151
rtibia 26.9901
rfoot -14.681 -13.1068
rtoes 3.30606
lfemur -13.0006 2.22612 -20.8573
ltibia 21.3953
lfoot -13.2756 -1.72319
ltoes -5.56303
26
root 0.498052 18.1255 -2.89627 9.33781 -2.71424 -0.396318
lowerback -6.97517 -0.705606 -7.2892
upperback -0.899639 -0.510605 3.7622
thorax 3.08103 -0.364146 8.04749
lowerneck -20.6333 0.253525 -0.481309
upperneck 19.6183 1.54102 -4.33036
head 9.66198 0.162024 -1.21578
rclavicle -4.12478e-015 3.18055e-015
rhumerus -29.3727 -1.79438 -80.5465
rradius 26.2159
rwrist -10.532
rhand -20.9531 12.9814
rfingers 7.12502
rthumb 5.41967 -16.9293
lclavicle -4.12478e-015 3.18055e-015
lhumerus -28.6391 24.3737 80.7888
lradius 21.2973
lwrist -0.931443
lhand -7.98732 34.7656
lfingers 7.12502
lthumb 17.921 63.9599
rfemur -14.9416 -0.970656 21.4985
rtibia 26.9969
rfoot -14.659 -13.0218
rtoes 2.86322
lfemur -13.0117 2.2065 -20.7715
ltibia 21.4273
lfoot -13.2673 -1.72702
ltoes -5.13595
27
root 0.494737 18.1245 -2.89714 9.35571 -2.72825 -0.399316
lowerback -6.93834 -0.692829 -7.24276
upperback -0.928957 -0.498716 3.73437
thorax 3.02661 -0.353872 7.99099
lowerneck -20.4756 0.298371 -0.413976
upperneck 19.6117 1.58881 -4.37291
head 9.63296 0.186359 -1.2344
rclavicle 9.98893e-015 5.40694e-014
rhumerus -29.4142 -1.87806 -80.5767
rradius 26.1416
rwrist -10.3738
rhand -20.9474 12.9659
rfingers 7.12502
rthumb 5.42514 -16.9447
lclavicle 9.98893e-015 5.40694e-014
lhumerus -28.6792 24.1111 80.8181
lradius 21.3831
lwrist -0.806018
lhand -7.90631 34.7124
lfingers 7.12502
lthumb 17.999 63.8995
rfemur -14.9478 -0.974821 21.5121
rtibia 26.9597
rfoot -14.6306 -12.9763
rtoes 3.22157
lfemur -13.0751 2.24475 -20.7616
ltibia 21.5084
lfoot -13.3037 -1.7382
ltoes -5.28721
28
root 0.489803 18.124 -2.89761 9.36209 -2.73981 -0.379145
lowerback -6.88521 -0.704534 -7.28069
upperback -0.901522 -0.51532 3.75468
thorax 3.02934 -0.363936 8.03345
lowerneck -20.6806 0.307929 -0.547206
upperneck 19.8362 1.63833 -4.28994
head 9.74917 0.202382 -1.1791
rclavicle 1.93815e-015 3.65764e-014
rhumerus -29.3187 -1.83407 -80.563
rradius 26.0543
rwrist -10.3111
rhand -20.876 13.0534
rfingers 7.12502
rthumb 5.4941 -16.8554
lclavicle 1.93815e-015 3.65764e-014
lhumerus -28.6252 23.9852 80.9536
lradius 21.4845
lwrist -0.6666
lhand -7.99972 34.8248
lfingers 7.12502
lthumb 17.9091 64.0202
rfemur -14.9287 -0.919039 21.5086
rtibia 26.9114
rfoot -14.6069 -13.0109
rtoes 3.71487
lfemur -13.1187 2.33027 -20.7671
ltibia 21.5844
lfoot -13.3489 -1.82503
ltoes -5.11264
29
root 0.48516 18.1245 -2.89696 9.37866 -2.73567 -0.451416
lowerback -6.88459 -0.721973 -7.19799
upperback -0.782734 -0.545683 3.80658
thorax 3.15948 -0.388759 8.03915
lowerneck -21.1648 0.307361 -0.726994
upperneck 20.1508 1.69532 -4.18882
head 9.94855 0.215225 -1.10998
rclavicle -3.926e-015 -1.82882e-014
rhumerus -29.0262 -1.78043 -80.5624
rradius 25.9199
rwrist -10.2287
rhand -20.8458 13.2029
rfingers 7.12502
rthumb 5.52318 -16.7051
lclavicle -3.926e-015 -1.82882e-014
lhumerus -28.3801 23.9599 81.1824
lradius 21.6058
lwrist -0.542094
lhand -8.11887 35.2908
lfingers 7.12502
lthumb 17.7945 64.4966
rfemur -14.9217 -0.857284 21.612
rtibia 26.8761
rfoot -14.5789 -13.1131
rtoes 3.38765
lfemur -13.1562 2.41601 -20.6657
ltibia 21.6248
lfoot -13.3766 -1.90531
ltoes -4.94878
